<svg xmlns="http://www.w3.org/2000/svg" id="Layer_1" data-name="Layer 1" viewBox="0 0 369.07 89.21"><defs><style>      .cls-1 {        fill: #d6d8d7;        stroke: #fff;        stroke-miterlimit: 10;      }    </style></defs><path class="cls-1" d="M22.37,58.8c-4.93-.35-14.23-1.84-22.37-10.28L.05,31.22c3.16,24.6,19.27,26.13,22.18,26.39l1.79,.09c7.58,.07,17.41-4.16,17.48-13.72v-.93C40.62,27.48,.88,33.34,1.05,13.95v-.56C1.42,5.95,9.21,0,21.51,.09h1.33c3.74,.12,12.18,2.05,18.55,7.51l-.12,13.69C38.27,5.3,27.27,1.39,22.74,1.04l-1.4-.09c-8.44-.07-14.28,4.42-14.62,9.74v.47c-.14,17.21,39.66,10.88,40.52,29.43v.79c-.07,9.7-10.63,17.6-23.13,17.51l-1.74-.09Z"></path><path class="cls-1" d="M77.21,54c-.7,.77-1.42,1.46-1.81,1.79-2.14,2.09-5.05,3.56-9.18,3.53-.79,0-1.65-.09-2.51-.19-6.09-.84-10.21-4.93-10.18-9.56,0-.56,.09-1.09,.16-1.65,1.63-7.35,9.39-9.23,15.02-9.97,2.12-.3,6.81-.65,8.63-3.6,.4-.63,.65-1.56,.65-2.65,.02-3.51-2.12-8.56-7.91-8.6h-.3c-2.81,.14-8.39,2.6-8.46,11.44v.56l-5.86-2.46c2.09-7.72,9.95-10.25,14.39-10.37h.79c5.72,.05,9.6,2.51,10.83,5.65,.3,.7,.47,1.42,.47,2.12-.02,3.21-2.95,6.46-10.46,8.67-4.86,1.53-10.67,3.05-11.58,9.3v1.09c-.02,2.91,1.02,8.46,6.98,8.97h.79c3.21,.02,5.79-1.28,8.32-4.07,.02-.02,.05-.05,.05-.07,2.7-2.88,4.81-6.25,6.25-9.93l.6-1.53v8.28c0,1.26,.05,3.28,.21,4.46,.3,1.49,1.4,2.35,2.72,2.37,0,0-1.65,1.86-4.23,1.84-2.07,0-4.16-1.02-4.37-5.42Z"></path><path class="cls-1" d="M312.19,53.94c-.72,.77-1.42,1.46-1.81,1.79-2.14,2.09-5.05,3.56-9.18,3.53-.79,0-1.65-.09-2.51-.19-6.09-.84-10.21-4.93-10.18-9.56,0-.56,.09-1.09,.16-1.65,1.63-7.35,9.39-9.23,15.02-9.97,2.12-.3,6.81-.65,8.63-3.6,.4-.63,.63-1.56,.65-2.65,.02-3.51-2.12-8.56-7.91-8.6h-.3c-2.81,.14-8.39,2.6-8.46,11.44v.56l-5.86-2.46c2.09-7.72,9.95-10.25,14.39-10.37h.79c5.72,.05,9.6,2.51,10.83,5.65,.3,.7,.47,1.42,.44,2.12-.02,3.21-2.95,6.46-10.49,8.67-4.86,1.53-10.67,3.05-11.58,9.3v1.09c-.02,2.98,0,8.37,6.98,8.97h.79c3.21,.02,5.79-1.28,8.32-4.07,.02-.02,.05-.05,.05-.07,2.7-2.88,4.81-6.25,6.25-9.93l.6-1.53v8.28c0,1.26,.05,3.28,.21,4.46,.3,1.49,1.4,2.35,2.72,2.37,0,0-1.65,1.86-4.23,1.84-2.02,0-4.12-1.05-4.32-5.42Z"></path><path class="cls-1" d="M114.06,22.88c6.53,1.67,13.16,7.86,13.11,15.14-.07,8.53-7.95,15.44-17.58,15.35-4.07-.02-7.74-1.3-10.63-3.3-2.21,1.86-3.16,3.42-3.16,4.67s.7,2.19,2.02,3c6.46,4.05,17.67,2.79,24.37,5.67,5.77,2.39,7.93,6.56,7.91,11.09,0,1.56-.26,3.14-.74,4.77-2.26,7.25-9.53,9.63-17.21,9.95h-1.26c-10.72-.09-20.16-5-22.81-15.67l6.6-3.46v.56c-.05,6.25,4.65,15.37,17.09,16.81,.93,.09,1.79,.16,2.65,.19,8.44,.07,12.72-4.74,13.14-9.14l.09-1.26c.05-6.02-5.09-9.18-16.11-10.3-14.93-1.44-18.97-5.32-18.95-9,.02-3.74,4.21-7.32,5.63-8.42-3.72-2.93-6.05-7.09-6-11.79,.05-6.67,4.79-12.28,11.44-14.42,2.6-.84,5.37-1.05,8.09-.72l2.3,.28m6.93,15.09c.07-8.07-4.98-14.67-11.16-14.72-6.25-.05-11.39,6.49-11.46,14.53-.07,8.04,4.98,14.6,11.23,14.65,6.18,.05,11.32-6.42,11.39-14.46Z"></path><path class="cls-1" d="M107.33,13.39c0-.98,.81-1.77,1.79-1.74s1.77,.81,1.74,1.77c0,1-.81,1.79-1.79,1.79s-1.74-.79-1.74-1.81Z"></path><path class="cls-1" d="M158.38,59.4s4.46-1.21,4.51-5.14l.12-13.37c.07-9.63-.95-17.14-9.88-17.53h-.23c-4.3-.02-9.25,1.88-12.25,6.63l-.19,24.09c.05,3.91,4.42,5.21,4.42,5.21l-14.46-.12s4.46-1.21,4.51-5.14l.4-46.57c.02-3.91-4.42-4.51-4.42-4.51,0,0,6.74-.88,10.04-2.65l-.33,29.7c1.74-4.19,6.95-7.7,12.51-7.72h.7c12.14,.09,14.88,8.58,14.79,18.67l-.12,13.37c-.02,3.91,4.35,5.21,4.35,5.21l-14.46-.12Z"></path><path class="cls-1" d="M354.53,59.55s4.46-1.21,4.51-5.14l.12-13.37c.07-9.63-.95-17.14-9.88-17.53h-.23c-4.3-.02-9.25,1.88-12.25,6.63l-.19,24.11c.05,3.91,4.42,5.21,4.42,5.21l-14.46-.12s4.46-1.21,4.51-5.14l.4-47.04c.02-3.91-4.42-4.51-4.42-4.51,0,0,6.72-.88,10.04-2.65l-.26,30.14c1.74-4.19,6.95-7.7,12.51-7.72h.7c12.14,.09,14.88,8.58,14.79,18.67l-.12,13.37c-.02,3.91,4.35,5.21,4.35,5.21l-14.53-.12Z"></path><path class="cls-1" d="M196.16,59.38c-10.25-.47-18.48-8.44-18.39-18.69,.07-10.18,8.21-18.32,18.3-18.39h.47c5.16,.05,13.04,3,13.3,8.63v.07c-.02,2.35-2.37,4.21-5.84,5.44-2.98,1.07-6.67,1.12-9.95,2.19-5.49,1.84-6.23,6.6-6.25,9.11,0,.86,.07,1.49,.07,1.49-.37-1.49-.53-2.74-.51-3.91,.09-11.28,16.18-7.86,17.88-15.04l.09-.63c.02-2.35-2.07-6.21-8.32-6.25h-.56c-6.25,.42-10.76,5.46-12.07,12.67-.33,1.79-.49,2.58-.51,4.7-.07,9.63,5.51,16.55,12.3,17.39l1.09,.09c4.37,.05,8.63-2.51,12.02-5.63l.3,1.42c-3.39,2.79-7.39,5.42-12.79,5.37l-.63-.02Z"></path><path class="cls-1" d="M234.57,59.38c-10.25-.47-18.48-8.44-18.39-18.69,.07-10.18,8.21-18.32,18.3-18.39h.47c5.16,.05,13.04,3,13.3,8.63v.07c-.02,2.35-2.37,4.21-5.84,5.44-2.98,1.07-6.67,1.12-9.95,2.19-5.49,1.84-6.23,6.6-6.25,9.11,0,.86,.07,1.49,.07,1.49-.37-1.49-.53-2.74-.51-3.91,.09-11.28,16.18-7.86,17.88-15.04l.09-.63c.02-2.35-2.07-6.21-8.32-6.25h-.56c-6.25,.42-10.76,5.46-12.07,12.67-.33,1.79-.49,2.58-.51,4.7-.07,9.63,5.51,16.55,12.3,17.39l1.09,.09c4.37,.05,8.63-2.51,12.02-5.63l.3,1.42c-3.39,2.79-7.39,5.42-12.79,5.37l-.63-.02Z"></path><path class="cls-1" d="M254.26,59.22s4.46-1.21,4.51-5.14l.19-24.71c.02-3.91-4.42-5.05-4.42-5.05,0,0,6.72-.35,10.11-2.12l-.05,5.95c1.26-1.63,5.05-5.98,11.23-5.93l1.09,.09c4.6,.51,7.25,2.79,8.09,4.6l-5.12,4.65c-.12-6.09-3.3-7.39-5.98-7.39-.93,0-1.88,.14-2.51,.3-3.3,.91-6.14,4.02-6.86,5.51l-.19,24.18c-.02,3.91,4.35,5.21,4.35,5.21l-14.46-.16Z"></path><path class="cls-1" d="M21.83,68.75c0-.98,.79-1.77,1.77-1.77s1.77,.79,1.77,1.77-.79,1.81-1.77,1.81c-.98,0-1.77-.79-1.77-1.81Z"></path></svg>